<mxfile host="app.diagrams.net" modified="2020-06-08T23:48:10.534Z" agent="5.0 (Windows NT 10.0; Win64; x64) AppleWebKit/537.36 (KHTML, like Gecko) Chrome/83.0.4103.97 Safari/537.36" etag="1pD6LJnKFFO3Kj17PITn" version="13.1.12" type="github" pages="2">
  <diagram id="pSJbavf_b1sC6GDBDCmx" name="SBN">
    <mxGraphModel dx="976" dy="588" grid="1" gridSize="10" guides="1" tooltips="1" connect="1" arrows="1" fold="1" page="1" pageScale="1" pageWidth="850" pageHeight="1100" math="0" shadow="0">
      <root>
        <mxCell id="0" />
        <mxCell id="1" parent="0" />
        <mxCell id="J3axFTlqXmi2pfMuhE-W-1" value="SBN_App_t" style="swimlane;fontStyle=0;childLayout=stackLayout;horizontal=1;startSize=26;fillColor=none;horizontalStack=0;resizeParent=1;resizeParentMax=0;resizeLast=0;collapsible=1;marginBottom=0;" parent="1" vertex="1">
          <mxGeometry x="110" y="230" width="190" height="208" as="geometry" />
        </mxCell>
        <mxCell id="J3axFTlqXmi2pfMuhE-W-3" value="uint32 AppID" style="text;strokeColor=none;fillColor=none;align=left;verticalAlign=top;spacingLeft=4;spacingRight=4;overflow=hidden;rotatable=0;points=[[0,0.5],[1,0.5]];portConstraint=eastwest;" parent="J3axFTlqXmi2pfMuhE-W-1" vertex="1">
          <mxGeometry y="26" width="190" height="26" as="geometry" />
        </mxCell>
        <mxCell id="J3axFTlqXmi2pfMuhE-W-4" value="char App_FullName[]" style="text;strokeColor=none;fillColor=none;align=left;verticalAlign=top;spacingLeft=4;spacingRight=4;overflow=hidden;rotatable=0;points=[[0,0.5],[1,0.5]];portConstraint=eastwest;" parent="J3axFTlqXmi2pfMuhE-W-1" vertex="1">
          <mxGeometry y="52" width="190" height="26" as="geometry" />
        </mxCell>
        <mxCell id="J3axFTlqXmi2pfMuhE-W-18" value="CFE_SB_PipeId_t SubPipe" style="text;strokeColor=none;fillColor=none;align=left;verticalAlign=top;spacingLeft=4;spacingRight=4;overflow=hidden;rotatable=0;points=[[0,0.5],[1,0.5]];portConstraint=eastwest;" parent="J3axFTlqXmi2pfMuhE-W-1" vertex="1">
          <mxGeometry y="78" width="190" height="26" as="geometry" />
        </mxCell>
        <mxCell id="J3axFTlqXmi2pfMuhE-W-20" value="CFE_SB_PipeId_t CmdPipe" style="text;strokeColor=none;fillColor=none;align=left;verticalAlign=top;spacingLeft=4;spacingRight=4;overflow=hidden;rotatable=0;points=[[0,0.5],[1,0.5]];portConstraint=eastwest;" parent="J3axFTlqXmi2pfMuhE-W-1" vertex="1">
          <mxGeometry y="104" width="190" height="26" as="geometry" />
        </mxCell>
        <mxCell id="J3axFTlqXmi2pfMuhE-W-30" value="CFE_SB_PipeId_t SchPipe" style="text;strokeColor=none;fillColor=none;align=left;verticalAlign=top;spacingLeft=4;spacingRight=4;overflow=hidden;rotatable=0;points=[[0,0.5],[1,0.5]];portConstraint=eastwest;" parent="J3axFTlqXmi2pfMuhE-W-1" vertex="1">
          <mxGeometry y="130" width="190" height="26" as="geometry" />
        </mxCell>
        <mxCell id="J3axFTlqXmi2pfMuhE-W-22" value="uint32 ModuleIDs[]" style="text;strokeColor=none;fillColor=none;align=left;verticalAlign=top;spacingLeft=4;spacingRight=4;overflow=hidden;rotatable=0;points=[[0,0.5],[1,0.5]];portConstraint=eastwest;" parent="J3axFTlqXmi2pfMuhE-W-1" vertex="1">
          <mxGeometry y="156" width="190" height="26" as="geometry" />
        </mxCell>
        <mxCell id="J3axFTlqXmi2pfMuhE-W-52" value="uint8 RemapEnabled" style="text;strokeColor=none;fillColor=none;align=left;verticalAlign=top;spacingLeft=4;spacingRight=4;overflow=hidden;rotatable=0;points=[[0,0.5],[1,0.5]];portConstraint=eastwest;" parent="J3axFTlqXmi2pfMuhE-W-1" vertex="1">
          <mxGeometry y="182" width="190" height="26" as="geometry" />
        </mxCell>
        <mxCell id="J3axFTlqXmi2pfMuhE-W-5" value="SBN_NetInterface_t" style="swimlane;fontStyle=0;childLayout=stackLayout;horizontal=1;startSize=26;fillColor=none;horizontalStack=0;resizeParent=1;resizeParentMax=0;resizeLast=0;collapsible=1;marginBottom=0;" parent="1" vertex="1">
          <mxGeometry x="440" y="200" width="140" height="104" as="geometry" />
        </mxCell>
        <mxCell id="J3axFTlqXmi2pfMuhE-W-6" value="boolean Configured" style="text;strokeColor=none;fillColor=none;align=left;verticalAlign=top;spacingLeft=4;spacingRight=4;overflow=hidden;rotatable=0;points=[[0,0.5],[1,0.5]];portConstraint=eastwest;" parent="J3axFTlqXmi2pfMuhE-W-5" vertex="1">
          <mxGeometry y="26" width="140" height="26" as="geometry" />
        </mxCell>
        <mxCell id="J3axFTlqXmi2pfMuhE-W-7" value="uint8 ProtocolID" style="text;strokeColor=none;fillColor=none;align=left;verticalAlign=top;spacingLeft=4;spacingRight=4;overflow=hidden;rotatable=0;points=[[0,0.5],[1,0.5]];portConstraint=eastwest;" parent="J3axFTlqXmi2pfMuhE-W-5" vertex="1">
          <mxGeometry y="52" width="140" height="26" as="geometry" />
        </mxCell>
        <mxCell id="J3axFTlqXmi2pfMuhE-W-8" value="uint8 ModulePvt[]" style="text;strokeColor=none;fillColor=none;align=left;verticalAlign=top;spacingLeft=4;spacingRight=4;overflow=hidden;rotatable=0;points=[[0,0.5],[1,0.5]];portConstraint=eastwest;" parent="J3axFTlqXmi2pfMuhE-W-5" vertex="1">
          <mxGeometry y="78" width="140" height="26" as="geometry" />
        </mxCell>
        <mxCell id="J3axFTlqXmi2pfMuhE-W-14" value="Nets" style="endArrow=open;html=1;endSize=12;startArrow=diamondThin;startSize=14;startFill=0;edgeStyle=orthogonalEdgeStyle;" parent="1" source="J3axFTlqXmi2pfMuhE-W-1" target="J3axFTlqXmi2pfMuhE-W-5" edge="1">
          <mxGeometry relative="1" as="geometry">
            <mxPoint x="300" y="269" as="sourcePoint" />
            <mxPoint x="460" y="310" as="targetPoint" />
          </mxGeometry>
        </mxCell>
        <mxCell id="J3axFTlqXmi2pfMuhE-W-15" value="NetCnt" style="resizable=0;html=1;align=left;verticalAlign=top;labelBackgroundColor=#ffffff;fontSize=10;" parent="J3axFTlqXmi2pfMuhE-W-14" connectable="0" vertex="1">
          <mxGeometry x="-1" relative="1" as="geometry" />
        </mxCell>
        <mxCell id="J3axFTlqXmi2pfMuhE-W-16" value="1" style="resizable=0;html=1;align=right;verticalAlign=top;labelBackgroundColor=#ffffff;fontSize=10;" parent="J3axFTlqXmi2pfMuhE-W-14" connectable="0" vertex="1">
          <mxGeometry x="1" relative="1" as="geometry" />
        </mxCell>
        <mxCell id="J3axFTlqXmi2pfMuhE-W-23" value="SBN_Subs_t" style="swimlane;fontStyle=0;childLayout=stackLayout;horizontal=1;startSize=26;fillColor=none;horizontalStack=0;resizeParent=1;resizeParentMax=0;resizeLast=0;collapsible=1;marginBottom=0;" parent="1" vertex="1">
          <mxGeometry x="390" y="360" width="140" height="104" as="geometry" />
        </mxCell>
        <mxCell id="J3axFTlqXmi2pfMuhE-W-24" value="uint32 InUseCtr" style="text;strokeColor=none;fillColor=none;align=left;verticalAlign=top;spacingLeft=4;spacingRight=4;overflow=hidden;rotatable=0;points=[[0,0.5],[1,0.5]];portConstraint=eastwest;" parent="J3axFTlqXmi2pfMuhE-W-23" vertex="1">
          <mxGeometry y="26" width="140" height="26" as="geometry" />
        </mxCell>
        <mxCell id="J3axFTlqXmi2pfMuhE-W-25" value="CFE_SB_MsgId_t MsgID" style="text;strokeColor=none;fillColor=none;align=left;verticalAlign=top;spacingLeft=4;spacingRight=4;overflow=hidden;rotatable=0;points=[[0,0.5],[1,0.5]];portConstraint=eastwest;" parent="J3axFTlqXmi2pfMuhE-W-23" vertex="1">
          <mxGeometry y="52" width="140" height="26" as="geometry" />
        </mxCell>
        <mxCell id="J3axFTlqXmi2pfMuhE-W-26" value="CFE_SB_Qos_t QoS" style="text;strokeColor=none;fillColor=none;align=left;verticalAlign=top;spacingLeft=4;spacingRight=4;overflow=hidden;rotatable=0;points=[[0,0.5],[1,0.5]];portConstraint=eastwest;" parent="J3axFTlqXmi2pfMuhE-W-23" vertex="1">
          <mxGeometry y="78" width="140" height="26" as="geometry" />
        </mxCell>
        <mxCell id="J3axFTlqXmi2pfMuhE-W-27" value="Subs" style="endArrow=open;html=1;endSize=12;startArrow=diamondThin;startSize=14;startFill=0;edgeStyle=orthogonalEdgeStyle;" parent="1" source="J3axFTlqXmi2pfMuhE-W-1" target="J3axFTlqXmi2pfMuhE-W-23" edge="1">
          <mxGeometry relative="1" as="geometry">
            <mxPoint x="300" y="399" as="sourcePoint" />
            <mxPoint x="450" y="262" as="targetPoint" />
            <Array as="points">
              <mxPoint x="370" y="390" />
              <mxPoint x="370" y="432" />
            </Array>
          </mxGeometry>
        </mxCell>
        <mxCell id="J3axFTlqXmi2pfMuhE-W-28" value="SubCnt" style="resizable=0;html=1;align=left;verticalAlign=top;labelBackgroundColor=#ffffff;fontSize=10;" parent="J3axFTlqXmi2pfMuhE-W-27" connectable="0" vertex="1">
          <mxGeometry x="-1" relative="1" as="geometry" />
        </mxCell>
        <mxCell id="J3axFTlqXmi2pfMuhE-W-29" value="1" style="resizable=0;html=1;align=right;verticalAlign=top;labelBackgroundColor=#ffffff;fontSize=10;" parent="J3axFTlqXmi2pfMuhE-W-27" connectable="0" vertex="1">
          <mxGeometry x="1" relative="1" as="geometry" />
        </mxCell>
        <mxCell id="J3axFTlqXmi2pfMuhE-W-31" value="SBN_IfOps_t" style="swimlane;fontStyle=0;childLayout=stackLayout;horizontal=1;startSize=26;fillColor=none;horizontalStack=0;resizeParent=1;resizeParentMax=0;resizeLast=0;collapsible=1;marginBottom=0;" parent="1" vertex="1">
          <mxGeometry x="110" y="538" width="140" height="338" as="geometry" />
        </mxCell>
        <mxCell id="J3axFTlqXmi2pfMuhE-W-32" value="InitModule()" style="text;strokeColor=none;fillColor=none;align=left;verticalAlign=top;spacingLeft=4;spacingRight=4;overflow=hidden;rotatable=0;points=[[0,0.5],[1,0.5]];portConstraint=eastwest;" parent="J3axFTlqXmi2pfMuhE-W-31" vertex="1">
          <mxGeometry y="26" width="140" height="26" as="geometry" />
        </mxCell>
        <mxCell id="J3axFTlqXmi2pfMuhE-W-33" value="LoadNet()" style="text;strokeColor=none;fillColor=none;align=left;verticalAlign=top;spacingLeft=4;spacingRight=4;overflow=hidden;rotatable=0;points=[[0,0.5],[1,0.5]];portConstraint=eastwest;" parent="J3axFTlqXmi2pfMuhE-W-31" vertex="1">
          <mxGeometry y="52" width="140" height="26" as="geometry" />
        </mxCell>
        <mxCell id="J3axFTlqXmi2pfMuhE-W-98" value="LoadPeer()" style="text;strokeColor=none;fillColor=none;align=left;verticalAlign=top;spacingLeft=4;spacingRight=4;overflow=hidden;rotatable=0;points=[[0,0.5],[1,0.5]];portConstraint=eastwest;" parent="J3axFTlqXmi2pfMuhE-W-31" vertex="1">
          <mxGeometry y="78" width="140" height="26" as="geometry" />
        </mxCell>
        <mxCell id="J3axFTlqXmi2pfMuhE-W-99" value="InitNet()" style="text;strokeColor=none;fillColor=none;align=left;verticalAlign=top;spacingLeft=4;spacingRight=4;overflow=hidden;rotatable=0;points=[[0,0.5],[1,0.5]];portConstraint=eastwest;" parent="J3axFTlqXmi2pfMuhE-W-31" vertex="1">
          <mxGeometry y="104" width="140" height="26" as="geometry" />
        </mxCell>
        <mxCell id="J3axFTlqXmi2pfMuhE-W-34" value="InitPeer()" style="text;strokeColor=none;fillColor=none;align=left;verticalAlign=top;spacingLeft=4;spacingRight=4;overflow=hidden;rotatable=0;points=[[0,0.5],[1,0.5]];portConstraint=eastwest;" parent="J3axFTlqXmi2pfMuhE-W-31" vertex="1">
          <mxGeometry y="130" width="140" height="26" as="geometry" />
        </mxCell>
        <mxCell id="J3axFTlqXmi2pfMuhE-W-101" value="PollPeer()" style="text;strokeColor=none;fillColor=none;align=left;verticalAlign=top;spacingLeft=4;spacingRight=4;overflow=hidden;rotatable=0;points=[[0,0.5],[1,0.5]];portConstraint=eastwest;" parent="J3axFTlqXmi2pfMuhE-W-31" vertex="1">
          <mxGeometry y="156" width="140" height="26" as="geometry" />
        </mxCell>
        <mxCell id="J3axFTlqXmi2pfMuhE-W-102" value="Send()" style="text;strokeColor=none;fillColor=none;align=left;verticalAlign=top;spacingLeft=4;spacingRight=4;overflow=hidden;rotatable=0;points=[[0,0.5],[1,0.5]];portConstraint=eastwest;" parent="J3axFTlqXmi2pfMuhE-W-31" vertex="1">
          <mxGeometry y="182" width="140" height="26" as="geometry" />
        </mxCell>
        <mxCell id="J3axFTlqXmi2pfMuhE-W-103" value="RecvFromPeer()" style="text;strokeColor=none;fillColor=none;align=left;verticalAlign=top;spacingLeft=4;spacingRight=4;overflow=hidden;rotatable=0;points=[[0,0.5],[1,0.5]];portConstraint=eastwest;" parent="J3axFTlqXmi2pfMuhE-W-31" vertex="1">
          <mxGeometry y="208" width="140" height="26" as="geometry" />
        </mxCell>
        <mxCell id="J3axFTlqXmi2pfMuhE-W-100" value="RecvFromNet()" style="text;strokeColor=none;fillColor=none;align=left;verticalAlign=top;spacingLeft=4;spacingRight=4;overflow=hidden;rotatable=0;points=[[0,0.5],[1,0.5]];portConstraint=eastwest;" parent="J3axFTlqXmi2pfMuhE-W-31" vertex="1">
          <mxGeometry y="234" width="140" height="26" as="geometry" />
        </mxCell>
        <mxCell id="J3axFTlqXmi2pfMuhE-W-105" value="ReportModuleStatus()" style="text;strokeColor=none;fillColor=none;align=left;verticalAlign=top;spacingLeft=4;spacingRight=4;overflow=hidden;rotatable=0;points=[[0,0.5],[1,0.5]];portConstraint=eastwest;" parent="J3axFTlqXmi2pfMuhE-W-31" vertex="1">
          <mxGeometry y="260" width="140" height="26" as="geometry" />
        </mxCell>
        <mxCell id="J3axFTlqXmi2pfMuhE-W-107" value="UnloadNet()" style="text;strokeColor=none;fillColor=none;align=left;verticalAlign=top;spacingLeft=4;spacingRight=4;overflow=hidden;rotatable=0;points=[[0,0.5],[1,0.5]];portConstraint=eastwest;" parent="J3axFTlqXmi2pfMuhE-W-31" vertex="1">
          <mxGeometry y="286" width="140" height="26" as="geometry" />
        </mxCell>
        <mxCell id="J3axFTlqXmi2pfMuhE-W-106" value="UnloadPeer()" style="text;strokeColor=none;fillColor=none;align=left;verticalAlign=top;spacingLeft=4;spacingRight=4;overflow=hidden;rotatable=0;points=[[0,0.5],[1,0.5]];portConstraint=eastwest;" parent="J3axFTlqXmi2pfMuhE-W-31" vertex="1">
          <mxGeometry y="312" width="140" height="26" as="geometry" />
        </mxCell>
        <mxCell id="J3axFTlqXmi2pfMuhE-W-35" value="IfOps" style="endArrow=open;html=1;endSize=12;startArrow=diamondThin;startSize=14;startFill=0;edgeStyle=orthogonalEdgeStyle;" parent="1" source="J3axFTlqXmi2pfMuhE-W-1" target="J3axFTlqXmi2pfMuhE-W-31" edge="1">
          <mxGeometry relative="1" as="geometry">
            <mxPoint x="310" y="435" as="sourcePoint" />
            <mxPoint x="450" y="442" as="targetPoint" />
            <Array as="points">
              <mxPoint x="210" y="520" />
            </Array>
          </mxGeometry>
        </mxCell>
        <mxCell id="J3axFTlqXmi2pfMuhE-W-36" value="0..n" style="resizable=0;html=1;align=left;verticalAlign=top;labelBackgroundColor=#ffffff;fontSize=10;" parent="J3axFTlqXmi2pfMuhE-W-35" connectable="0" vertex="1">
          <mxGeometry x="-1" relative="1" as="geometry" />
        </mxCell>
        <mxCell id="J3axFTlqXmi2pfMuhE-W-37" value="1" style="resizable=0;html=1;align=right;verticalAlign=top;labelBackgroundColor=#ffffff;fontSize=10;" parent="J3axFTlqXmi2pfMuhE-W-35" connectable="0" vertex="1">
          <mxGeometry x="1" relative="1" as="geometry">
            <mxPoint x="-10" y="-28" as="offset" />
          </mxGeometry>
        </mxCell>
        <mxCell id="J3axFTlqXmi2pfMuhE-W-38" value="SBN_ConfTbl_t" style="swimlane;fontStyle=0;childLayout=stackLayout;horizontal=1;startSize=26;fillColor=none;horizontalStack=0;resizeParent=1;resizeParentMax=0;resizeLast=0;collapsible=1;marginBottom=0;" parent="1" vertex="1">
          <mxGeometry x="400" y="720" width="140" height="52" as="geometry" />
        </mxCell>
        <mxCell id="J3axFTlqXmi2pfMuhE-W-42" value="ConfTbl" style="endArrow=open;html=1;endSize=12;startArrow=diamondThin;startSize=14;startFill=0;edgeStyle=orthogonalEdgeStyle;" parent="1" source="J3axFTlqXmi2pfMuhE-W-1" target="J3axFTlqXmi2pfMuhE-W-38" edge="1">
          <mxGeometry relative="1" as="geometry">
            <mxPoint x="220" y="474" as="sourcePoint" />
            <mxPoint x="435" y="612" as="targetPoint" />
            <Array as="points">
              <mxPoint x="290" y="746" />
            </Array>
          </mxGeometry>
        </mxCell>
        <mxCell id="J3axFTlqXmi2pfMuhE-W-43" value="1" style="resizable=0;html=1;align=left;verticalAlign=top;labelBackgroundColor=#ffffff;fontSize=10;" parent="J3axFTlqXmi2pfMuhE-W-42" connectable="0" vertex="1">
          <mxGeometry x="-1" relative="1" as="geometry" />
        </mxCell>
        <mxCell id="J3axFTlqXmi2pfMuhE-W-44" value="1" style="resizable=0;html=1;align=right;verticalAlign=top;labelBackgroundColor=#ffffff;fontSize=10;" parent="J3axFTlqXmi2pfMuhE-W-42" connectable="0" vertex="1">
          <mxGeometry x="1" relative="1" as="geometry">
            <mxPoint x="20" y="-30" as="offset" />
          </mxGeometry>
        </mxCell>
        <mxCell id="J3axFTlqXmi2pfMuhE-W-45" value="SBN_RemapTbl_t" style="swimlane;fontStyle=0;childLayout=stackLayout;horizontal=1;startSize=26;fillColor=none;horizontalStack=0;resizeParent=1;resizeParentMax=0;resizeLast=0;collapsible=1;marginBottom=0;" parent="1" vertex="1">
          <mxGeometry x="380" y="538" width="140" height="104" as="geometry" />
        </mxCell>
        <mxCell id="J3axFTlqXmi2pfMuhE-W-46" value="uint16 NetCnt" style="text;strokeColor=none;fillColor=none;align=left;verticalAlign=top;spacingLeft=4;spacingRight=4;overflow=hidden;rotatable=0;points=[[0,0.5],[1,0.5]];portConstraint=eastwest;" parent="J3axFTlqXmi2pfMuhE-W-45" vertex="1">
          <mxGeometry y="26" width="140" height="26" as="geometry" />
        </mxCell>
        <mxCell id="J3axFTlqXmi2pfMuhE-W-47" value="+ field: type" style="text;strokeColor=none;fillColor=none;align=left;verticalAlign=top;spacingLeft=4;spacingRight=4;overflow=hidden;rotatable=0;points=[[0,0.5],[1,0.5]];portConstraint=eastwest;" parent="J3axFTlqXmi2pfMuhE-W-45" vertex="1">
          <mxGeometry y="52" width="140" height="26" as="geometry" />
        </mxCell>
        <mxCell id="J3axFTlqXmi2pfMuhE-W-48" value="+ field: type" style="text;strokeColor=none;fillColor=none;align=left;verticalAlign=top;spacingLeft=4;spacingRight=4;overflow=hidden;rotatable=0;points=[[0,0.5],[1,0.5]];portConstraint=eastwest;" parent="J3axFTlqXmi2pfMuhE-W-45" vertex="1">
          <mxGeometry y="78" width="140" height="26" as="geometry" />
        </mxCell>
        <mxCell id="J3axFTlqXmi2pfMuhE-W-49" value="RemapTbl" style="endArrow=open;html=1;endSize=12;startArrow=diamondThin;startSize=14;startFill=0;edgeStyle=orthogonalEdgeStyle;" parent="1" source="J3axFTlqXmi2pfMuhE-W-52" target="J3axFTlqXmi2pfMuhE-W-45" edge="1">
          <mxGeometry relative="1" as="geometry">
            <mxPoint x="160" y="474" as="sourcePoint" />
            <mxPoint x="270" y="700" as="targetPoint" />
            <Array as="points">
              <mxPoint x="330" y="425" />
              <mxPoint x="330" y="602" />
            </Array>
          </mxGeometry>
        </mxCell>
        <mxCell id="J3axFTlqXmi2pfMuhE-W-50" value="1" style="resizable=0;html=1;align=left;verticalAlign=top;labelBackgroundColor=#ffffff;fontSize=10;" parent="J3axFTlqXmi2pfMuhE-W-49" connectable="0" vertex="1">
          <mxGeometry x="-1" relative="1" as="geometry" />
        </mxCell>
        <mxCell id="J3axFTlqXmi2pfMuhE-W-51" value="1" style="resizable=0;html=1;align=right;verticalAlign=top;labelBackgroundColor=#ffffff;fontSize=10;" parent="J3axFTlqXmi2pfMuhE-W-49" connectable="0" vertex="1">
          <mxGeometry x="1" relative="1" as="geometry">
            <mxPoint x="-10" y="-22" as="offset" />
          </mxGeometry>
        </mxCell>
        <mxCell id="J3axFTlqXmi2pfMuhE-W-53" value="SBN_Mod_Entry_t" style="swimlane;fontStyle=0;childLayout=stackLayout;horizontal=1;startSize=26;fillColor=none;horizontalStack=0;resizeParent=1;resizeParentMax=0;resizeLast=0;collapsible=1;marginBottom=0;" parent="1" vertex="1">
          <mxGeometry x="620" y="746" width="140" height="104" as="geometry" />
        </mxCell>
        <mxCell id="J3axFTlqXmi2pfMuhE-W-54" value="char Name[]" style="text;strokeColor=none;fillColor=none;align=left;verticalAlign=top;spacingLeft=4;spacingRight=4;overflow=hidden;rotatable=0;points=[[0,0.5],[1,0.5]];portConstraint=eastwest;" parent="J3axFTlqXmi2pfMuhE-W-53" vertex="1">
          <mxGeometry y="26" width="140" height="26" as="geometry" />
        </mxCell>
        <mxCell id="J3axFTlqXmi2pfMuhE-W-55" value="char LibFileName[]" style="text;strokeColor=none;fillColor=none;align=left;verticalAlign=top;spacingLeft=4;spacingRight=4;overflow=hidden;rotatable=0;points=[[0,0.5],[1,0.5]];portConstraint=eastwest;" parent="J3axFTlqXmi2pfMuhE-W-53" vertex="1">
          <mxGeometry y="52" width="140" height="26" as="geometry" />
        </mxCell>
        <mxCell id="J3axFTlqXmi2pfMuhE-W-56" value="char LibSymbol[]" style="text;strokeColor=none;fillColor=none;align=left;verticalAlign=top;spacingLeft=4;spacingRight=4;overflow=hidden;rotatable=0;points=[[0,0.5],[1,0.5]];portConstraint=eastwest;" parent="J3axFTlqXmi2pfMuhE-W-53" vertex="1">
          <mxGeometry y="78" width="140" height="26" as="geometry" />
        </mxCell>
        <mxCell id="J3axFTlqXmi2pfMuhE-W-57" value="Mods" style="endArrow=open;html=1;endSize=12;startArrow=diamondThin;startSize=14;startFill=0;edgeStyle=orthogonalEdgeStyle;" parent="1" source="J3axFTlqXmi2pfMuhE-W-38" target="J3axFTlqXmi2pfMuhE-W-53" edge="1">
          <mxGeometry relative="1" as="geometry">
            <mxPoint x="330" y="729" as="sourcePoint" />
            <mxPoint x="435" y="612" as="targetPoint" />
            <Array as="points">
              <mxPoint x="590" y="740" />
              <mxPoint x="590" y="768" />
            </Array>
          </mxGeometry>
        </mxCell>
        <mxCell id="J3axFTlqXmi2pfMuhE-W-58" value="ModCnt" style="resizable=0;html=1;align=left;verticalAlign=top;labelBackgroundColor=#ffffff;fontSize=10;" parent="J3axFTlqXmi2pfMuhE-W-57" connectable="0" vertex="1">
          <mxGeometry x="-1" relative="1" as="geometry" />
        </mxCell>
        <mxCell id="J3axFTlqXmi2pfMuhE-W-59" value="1" style="resizable=0;html=1;align=right;verticalAlign=top;labelBackgroundColor=#ffffff;fontSize=10;" parent="J3axFTlqXmi2pfMuhE-W-57" connectable="0" vertex="1">
          <mxGeometry x="1" relative="1" as="geometry" />
        </mxCell>
        <mxCell id="J3axFTlqXmi2pfMuhE-W-60" value="SBN_Peer_Entry_t" style="swimlane;fontStyle=0;childLayout=stackLayout;horizontal=1;startSize=26;fillColor=none;horizontalStack=0;resizeParent=1;resizeParentMax=0;resizeLast=0;collapsible=1;marginBottom=0;" parent="1" vertex="1">
          <mxGeometry x="420" y="850" width="140" height="156" as="geometry" />
        </mxCell>
        <mxCell id="J3axFTlqXmi2pfMuhE-W-61" value="uint32 ProcessorID" style="text;strokeColor=none;fillColor=none;align=left;verticalAlign=top;spacingLeft=4;spacingRight=4;overflow=hidden;rotatable=0;points=[[0,0.5],[1,0.5]];portConstraint=eastwest;" parent="J3axFTlqXmi2pfMuhE-W-60" vertex="1">
          <mxGeometry y="26" width="140" height="26" as="geometry" />
        </mxCell>
        <mxCell id="J3axFTlqXmi2pfMuhE-W-62" value="uint32 SpacecraftID" style="text;strokeColor=none;fillColor=none;align=left;verticalAlign=top;spacingLeft=4;spacingRight=4;overflow=hidden;rotatable=0;points=[[0,0.5],[1,0.5]];portConstraint=eastwest;" parent="J3axFTlqXmi2pfMuhE-W-60" vertex="1">
          <mxGeometry y="52" width="140" height="26" as="geometry" />
        </mxCell>
        <mxCell id="J3axFTlqXmi2pfMuhE-W-68" value="uint16 NetNum" style="text;strokeColor=none;fillColor=none;align=left;verticalAlign=top;spacingLeft=4;spacingRight=4;overflow=hidden;rotatable=0;points=[[0,0.5],[1,0.5]];portConstraint=eastwest;" parent="J3axFTlqXmi2pfMuhE-W-60" vertex="1">
          <mxGeometry y="78" width="140" height="26" as="geometry" />
        </mxCell>
        <mxCell id="J3axFTlqXmi2pfMuhE-W-69" value="uint16 ModIdx" style="text;strokeColor=none;fillColor=none;align=left;verticalAlign=top;spacingLeft=4;spacingRight=4;overflow=hidden;rotatable=0;points=[[0,0.5],[1,0.5]];portConstraint=eastwest;" parent="J3axFTlqXmi2pfMuhE-W-60" vertex="1">
          <mxGeometry y="104" width="140" height="26" as="geometry" />
        </mxCell>
        <mxCell id="J3axFTlqXmi2pfMuhE-W-63" value="uint8 Address[]" style="text;strokeColor=none;fillColor=none;align=left;verticalAlign=top;spacingLeft=4;spacingRight=4;overflow=hidden;rotatable=0;points=[[0,0.5],[1,0.5]];portConstraint=eastwest;" parent="J3axFTlqXmi2pfMuhE-W-60" vertex="1">
          <mxGeometry y="130" width="140" height="26" as="geometry" />
        </mxCell>
        <mxCell id="J3axFTlqXmi2pfMuhE-W-74" value="Peers" style="endArrow=open;html=1;endSize=12;startArrow=diamondThin;startSize=14;startFill=0;edgeStyle=orthogonalEdgeStyle;" parent="1" source="J3axFTlqXmi2pfMuhE-W-38" target="J3axFTlqXmi2pfMuhE-W-60" edge="1">
          <mxGeometry relative="1" as="geometry">
            <mxPoint x="230" y="799" as="sourcePoint" />
            <mxPoint x="370" y="807" as="targetPoint" />
            <Array as="points">
              <mxPoint x="470" y="830" />
              <mxPoint x="490" y="830" />
            </Array>
          </mxGeometry>
        </mxCell>
        <mxCell id="J3axFTlqXmi2pfMuhE-W-75" value="PeerCnt" style="resizable=0;html=1;align=left;verticalAlign=top;labelBackgroundColor=#ffffff;fontSize=10;" parent="J3axFTlqXmi2pfMuhE-W-74" connectable="0" vertex="1">
          <mxGeometry x="-1" relative="1" as="geometry" />
        </mxCell>
        <mxCell id="J3axFTlqXmi2pfMuhE-W-76" value="1" style="resizable=0;html=1;align=right;verticalAlign=top;labelBackgroundColor=#ffffff;fontSize=10;" parent="J3axFTlqXmi2pfMuhE-W-74" connectable="0" vertex="1">
          <mxGeometry x="1" relative="1" as="geometry">
            <mxPoint x="20" y="-30" as="offset" />
          </mxGeometry>
        </mxCell>
        <mxCell id="J3axFTlqXmi2pfMuhE-W-78" value="SBN_PeerInterface_t" style="swimlane;fontStyle=0;childLayout=stackLayout;horizontal=1;startSize=26;fillColor=none;horizontalStack=0;resizeParent=1;resizeParentMax=0;resizeLast=0;collapsible=1;marginBottom=0;" parent="1" vertex="1">
          <mxGeometry x="660" y="276" width="170" height="290" as="geometry" />
        </mxCell>
        <mxCell id="J3axFTlqXmi2pfMuhE-W-79" value="uint32 ProcessorID" style="text;strokeColor=none;fillColor=none;align=left;verticalAlign=top;spacingLeft=4;spacingRight=4;overflow=hidden;rotatable=0;points=[[0,0.5],[1,0.5]];portConstraint=eastwest;" parent="J3axFTlqXmi2pfMuhE-W-78" vertex="1">
          <mxGeometry y="26" width="170" height="26" as="geometry" />
        </mxCell>
        <mxCell id="J3axFTlqXmi2pfMuhE-W-80" value="uint32 SpacecraftID" style="text;strokeColor=none;fillColor=none;align=left;verticalAlign=top;spacingLeft=4;spacingRight=4;overflow=hidden;rotatable=0;points=[[0,0.5],[1,0.5]];portConstraint=eastwest;" parent="J3axFTlqXmi2pfMuhE-W-78" vertex="1">
          <mxGeometry y="52" width="170" height="26" as="geometry" />
        </mxCell>
        <mxCell id="J3axFTlqXmi2pfMuhE-W-81" value="CFE_SB_PipeId_t Pipe" style="text;strokeColor=none;fillColor=none;align=left;verticalAlign=top;spacingLeft=4;spacingRight=4;overflow=hidden;rotatable=0;points=[[0,0.5],[1,0.5]];portConstraint=eastwest;" parent="J3axFTlqXmi2pfMuhE-W-78" vertex="1">
          <mxGeometry y="78" width="170" height="26" as="geometry" />
        </mxCell>
        <mxCell id="J3axFTlqXmi2pfMuhE-W-86" value="char PipeName[]" style="text;strokeColor=none;fillColor=none;align=left;verticalAlign=top;spacingLeft=4;spacingRight=4;overflow=hidden;rotatable=0;points=[[0,0.5],[1,0.5]];portConstraint=eastwest;" parent="J3axFTlqXmi2pfMuhE-W-78" vertex="1">
          <mxGeometry y="104" width="170" height="26" as="geometry" />
        </mxCell>
        <mxCell id="J3axFTlqXmi2pfMuhE-W-87" value="CFE_SB_PipeId_t Pipe" style="text;strokeColor=none;fillColor=none;align=left;verticalAlign=top;spacingLeft=4;spacingRight=4;overflow=hidden;rotatable=0;points=[[0,0.5],[1,0.5]];portConstraint=eastwest;" parent="J3axFTlqXmi2pfMuhE-W-78" vertex="1">
          <mxGeometry y="130" width="170" height="26" as="geometry" />
        </mxCell>
        <mxCell id="J3axFTlqXmi2pfMuhE-W-96" value="OS_time_t LastSend" style="text;strokeColor=none;fillColor=none;align=left;verticalAlign=top;spacingLeft=4;spacingRight=4;overflow=hidden;rotatable=0;points=[[0,0.5],[1,0.5]];portConstraint=eastwest;" parent="J3axFTlqXmi2pfMuhE-W-78" vertex="1">
          <mxGeometry y="156" width="170" height="26" as="geometry" />
        </mxCell>
        <mxCell id="J3axFTlqXmi2pfMuhE-W-97" value="OS_time_t LastRecv" style="text;strokeColor=none;fillColor=none;align=left;verticalAlign=top;spacingLeft=4;spacingRight=4;overflow=hidden;rotatable=0;points=[[0,0.5],[1,0.5]];portConstraint=eastwest;" parent="J3axFTlqXmi2pfMuhE-W-78" vertex="1">
          <mxGeometry y="182" width="170" height="28" as="geometry" />
        </mxCell>
        <mxCell id="J3axFTlqXmi2pfMuhE-W-85" value="uint8 Connected" style="text;strokeColor=none;fillColor=none;align=left;verticalAlign=top;spacingLeft=4;spacingRight=4;overflow=hidden;rotatable=0;points=[[0,0.5],[1,0.5]];portConstraint=eastwest;" parent="J3axFTlqXmi2pfMuhE-W-78" vertex="1">
          <mxGeometry y="210" width="170" height="26" as="geometry" />
        </mxCell>
        <mxCell id="X4MLEP3m9icmOMyw-gJx-2" value="SBN_Task_Flag_t TaskFlags" style="text;whiteSpace=wrap;html=1;" vertex="1" parent="J3axFTlqXmi2pfMuhE-W-78">
          <mxGeometry y="236" width="170" height="30" as="geometry" />
        </mxCell>
        <mxCell id="J3axFTlqXmi2pfMuhE-W-95" value="uint8 ModulePvt[]" style="text;strokeColor=none;fillColor=none;align=left;verticalAlign=top;spacingLeft=4;spacingRight=4;overflow=hidden;rotatable=0;points=[[0,0.5],[1,0.5]];portConstraint=eastwest;" parent="J3axFTlqXmi2pfMuhE-W-78" vertex="1">
          <mxGeometry y="266" width="170" height="24" as="geometry" />
        </mxCell>
        <mxCell id="J3axFTlqXmi2pfMuhE-W-82" value="Peers" style="endArrow=open;html=1;endSize=12;startArrow=diamondThin;startSize=14;startFill=0;edgeStyle=orthogonalEdgeStyle;" parent="1" source="J3axFTlqXmi2pfMuhE-W-5" target="J3axFTlqXmi2pfMuhE-W-78" edge="1">
          <mxGeometry relative="1" as="geometry">
            <mxPoint x="310" y="344" as="sourcePoint" />
            <mxPoint x="450" y="262" as="targetPoint" />
          </mxGeometry>
        </mxCell>
        <mxCell id="J3axFTlqXmi2pfMuhE-W-83" value="PeerCnt" style="resizable=0;html=1;align=left;verticalAlign=top;labelBackgroundColor=#ffffff;fontSize=10;" parent="J3axFTlqXmi2pfMuhE-W-82" connectable="0" vertex="1">
          <mxGeometry x="-1" relative="1" as="geometry" />
        </mxCell>
        <mxCell id="J3axFTlqXmi2pfMuhE-W-84" value="1" style="resizable=0;html=1;align=right;verticalAlign=top;labelBackgroundColor=#ffffff;fontSize=10;" parent="J3axFTlqXmi2pfMuhE-W-82" connectable="0" vertex="1">
          <mxGeometry x="1" relative="1" as="geometry" />
        </mxCell>
        <mxCell id="J3axFTlqXmi2pfMuhE-W-92" value="Subs" style="endArrow=open;html=1;endSize=12;startArrow=diamondThin;startSize=14;startFill=0;edgeStyle=orthogonalEdgeStyle;entryX=0.429;entryY=0;entryDx=0;entryDy=0;entryPerimeter=0;" parent="1" source="J3axFTlqXmi2pfMuhE-W-78" target="J3axFTlqXmi2pfMuhE-W-88" edge="1">
          <mxGeometry relative="1" as="geometry">
            <mxPoint x="310" y="400" as="sourcePoint" />
            <mxPoint x="400" y="442" as="targetPoint" />
            <Array as="points">
              <mxPoint x="600" y="460" />
            </Array>
          </mxGeometry>
        </mxCell>
        <mxCell id="J3axFTlqXmi2pfMuhE-W-93" value="SubCnt" style="resizable=0;html=1;align=left;verticalAlign=top;labelBackgroundColor=#ffffff;fontSize=10;" parent="J3axFTlqXmi2pfMuhE-W-92" connectable="0" vertex="1">
          <mxGeometry x="-1" relative="1" as="geometry">
            <mxPoint x="-50" as="offset" />
          </mxGeometry>
        </mxCell>
        <mxCell id="J3axFTlqXmi2pfMuhE-W-94" value="1" style="resizable=0;html=1;align=right;verticalAlign=top;labelBackgroundColor=#ffffff;fontSize=10;" parent="J3axFTlqXmi2pfMuhE-W-92" connectable="0" vertex="1">
          <mxGeometry x="1" relative="1" as="geometry">
            <mxPoint x="20" y="-26" as="offset" />
          </mxGeometry>
        </mxCell>
        <mxCell id="J3axFTlqXmi2pfMuhE-W-88" value="SBN_Subs_t" style="swimlane;fontStyle=0;childLayout=stackLayout;horizontal=1;startSize=26;fillColor=none;horizontalStack=0;resizeParent=1;resizeParentMax=0;resizeLast=0;collapsible=1;marginBottom=0;" parent="1" vertex="1">
          <mxGeometry x="540" y="590" width="140" height="104" as="geometry" />
        </mxCell>
        <mxCell id="J3axFTlqXmi2pfMuhE-W-89" value="uint32 InUseCtr" style="text;strokeColor=none;fillColor=none;align=left;verticalAlign=top;spacingLeft=4;spacingRight=4;overflow=hidden;rotatable=0;points=[[0,0.5],[1,0.5]];portConstraint=eastwest;" parent="J3axFTlqXmi2pfMuhE-W-88" vertex="1">
          <mxGeometry y="26" width="140" height="26" as="geometry" />
        </mxCell>
        <mxCell id="J3axFTlqXmi2pfMuhE-W-90" value="CFE_SB_MsgId_t MsgID" style="text;strokeColor=none;fillColor=none;align=left;verticalAlign=top;spacingLeft=4;spacingRight=4;overflow=hidden;rotatable=0;points=[[0,0.5],[1,0.5]];portConstraint=eastwest;" parent="J3axFTlqXmi2pfMuhE-W-88" vertex="1">
          <mxGeometry y="52" width="140" height="26" as="geometry" />
        </mxCell>
        <mxCell id="J3axFTlqXmi2pfMuhE-W-91" value="CFE_SB_Qos_t QoS" style="text;strokeColor=none;fillColor=none;align=left;verticalAlign=top;spacingLeft=4;spacingRight=4;overflow=hidden;rotatable=0;points=[[0,0.5],[1,0.5]];portConstraint=eastwest;" parent="J3axFTlqXmi2pfMuhE-W-88" vertex="1">
          <mxGeometry y="78" width="140" height="26" as="geometry" />
        </mxCell>
      </root>
    </mxGraphModel>
  </diagram>
  <diagram id="gMyxKp6k9Ic6h43N1kZ8" name="TCP">
    <mxGraphModel dx="976" dy="588" grid="1" gridSize="10" guides="1" tooltips="1" connect="1" arrows="1" fold="1" page="1" pageScale="1" pageWidth="850" pageHeight="1100" math="0" shadow="0">
      <root>
        <mxCell id="GgCSxqtSinEt-At-rPkc-0" />
        <mxCell id="GgCSxqtSinEt-At-rPkc-1" parent="GgCSxqtSinEt-At-rPkc-0" />
        <mxCell id="yGApRK1RUV87Ir9ato0B-0" value="SBN_PeerInterface_t" style="swimlane;fontStyle=0;childLayout=stackLayout;horizontal=1;startSize=26;fillColor=#FFFFFF;horizontalStack=0;resizeParent=1;resizeParentMax=0;resizeLast=0;collapsible=1;marginBottom=0;dashed=1;" vertex="1" parent="GgCSxqtSinEt-At-rPkc-1">
          <mxGeometry x="110" y="240" width="140" height="236" as="geometry" />
        </mxCell>
        <mxCell id="yGApRK1RUV87Ir9ato0B-1" value="uint32 ProcessorID" style="text;strokeColor=none;fillColor=none;align=left;verticalAlign=top;spacingLeft=4;spacingRight=4;overflow=hidden;rotatable=0;points=[[0,0.5],[1,0.5]];portConstraint=eastwest;" vertex="1" parent="yGApRK1RUV87Ir9ato0B-0">
          <mxGeometry y="26" width="140" height="26" as="geometry" />
        </mxCell>
        <mxCell id="yGApRK1RUV87Ir9ato0B-2" value="uint32 SpacecraftID" style="text;strokeColor=none;fillColor=none;align=left;verticalAlign=top;spacingLeft=4;spacingRight=4;overflow=hidden;rotatable=0;points=[[0,0.5],[1,0.5]];portConstraint=eastwest;" vertex="1" parent="yGApRK1RUV87Ir9ato0B-0">
          <mxGeometry y="52" width="140" height="26" as="geometry" />
        </mxCell>
        <mxCell id="yGApRK1RUV87Ir9ato0B-3" value="CFE_SB_PipeId_t Pipe" style="text;strokeColor=none;fillColor=none;align=left;verticalAlign=top;spacingLeft=4;spacingRight=4;overflow=hidden;rotatable=0;points=[[0,0.5],[1,0.5]];portConstraint=eastwest;" vertex="1" parent="yGApRK1RUV87Ir9ato0B-0">
          <mxGeometry y="78" width="140" height="26" as="geometry" />
        </mxCell>
        <mxCell id="yGApRK1RUV87Ir9ato0B-4" value="char PipeName[]" style="text;strokeColor=none;fillColor=none;align=left;verticalAlign=top;spacingLeft=4;spacingRight=4;overflow=hidden;rotatable=0;points=[[0,0.5],[1,0.5]];portConstraint=eastwest;" vertex="1" parent="yGApRK1RUV87Ir9ato0B-0">
          <mxGeometry y="104" width="140" height="26" as="geometry" />
        </mxCell>
        <mxCell id="yGApRK1RUV87Ir9ato0B-5" value="CFE_SB_PipeId_t Pipe" style="text;strokeColor=none;fillColor=none;align=left;verticalAlign=top;spacingLeft=4;spacingRight=4;overflow=hidden;rotatable=0;points=[[0,0.5],[1,0.5]];portConstraint=eastwest;" vertex="1" parent="yGApRK1RUV87Ir9ato0B-0">
          <mxGeometry y="130" width="140" height="26" as="geometry" />
        </mxCell>
        <mxCell id="yGApRK1RUV87Ir9ato0B-6" value="OS_time_t LastSend" style="text;strokeColor=none;fillColor=none;align=left;verticalAlign=top;spacingLeft=4;spacingRight=4;overflow=hidden;rotatable=0;points=[[0,0.5],[1,0.5]];portConstraint=eastwest;" vertex="1" parent="yGApRK1RUV87Ir9ato0B-0">
          <mxGeometry y="156" width="140" height="26" as="geometry" />
        </mxCell>
        <mxCell id="yGApRK1RUV87Ir9ato0B-7" value="OS_time_t LastRecv" style="text;strokeColor=none;fillColor=none;align=left;verticalAlign=top;spacingLeft=4;spacingRight=4;overflow=hidden;rotatable=0;points=[[0,0.5],[1,0.5]];portConstraint=eastwest;" vertex="1" parent="yGApRK1RUV87Ir9ato0B-0">
          <mxGeometry y="182" width="140" height="28" as="geometry" />
        </mxCell>
        <mxCell id="yGApRK1RUV87Ir9ato0B-8" value="uint8 Connected" style="text;strokeColor=none;fillColor=none;align=left;verticalAlign=top;spacingLeft=4;spacingRight=4;overflow=hidden;rotatable=0;points=[[0,0.5],[1,0.5]];portConstraint=eastwest;" vertex="1" parent="yGApRK1RUV87Ir9ato0B-0">
          <mxGeometry y="210" width="140" height="26" as="geometry" />
        </mxCell>
        <mxCell id="T9WD5PDA_iEELxJy5RSR-0" value="SBN_NetInterface_t" style="swimlane;fontStyle=0;childLayout=stackLayout;horizontal=1;startSize=26;fillColor=#FFFFFF;horizontalStack=0;resizeParent=1;resizeParentMax=0;resizeLast=0;collapsible=1;marginBottom=0;dashed=1;" vertex="1" parent="GgCSxqtSinEt-At-rPkc-1">
          <mxGeometry x="230" y="40" width="140" height="78" as="geometry" />
        </mxCell>
        <mxCell id="T9WD5PDA_iEELxJy5RSR-1" value="boolean Configured" style="text;strokeColor=none;fillColor=none;align=left;verticalAlign=top;spacingLeft=4;spacingRight=4;overflow=hidden;rotatable=0;points=[[0,0.5],[1,0.5]];portConstraint=eastwest;" vertex="1" parent="T9WD5PDA_iEELxJy5RSR-0">
          <mxGeometry y="26" width="140" height="26" as="geometry" />
        </mxCell>
        <mxCell id="T9WD5PDA_iEELxJy5RSR-2" value="uint8 ProtocolID" style="text;strokeColor=none;fillColor=none;align=left;verticalAlign=top;spacingLeft=4;spacingRight=4;overflow=hidden;rotatable=0;points=[[0,0.5],[1,0.5]];portConstraint=eastwest;" vertex="1" parent="T9WD5PDA_iEELxJy5RSR-0">
          <mxGeometry y="52" width="140" height="26" as="geometry" />
        </mxCell>
        <mxCell id="T9WD5PDA_iEELxJy5RSR-4" value="SBN_TCP_Conn_t" style="swimlane;fontStyle=0;childLayout=stackLayout;horizontal=1;startSize=26;fillColor=#FFFFFF;horizontalStack=0;resizeParent=1;resizeParentMax=0;resizeLast=0;collapsible=1;marginBottom=0;" vertex="1" parent="GgCSxqtSinEt-At-rPkc-1">
          <mxGeometry x="480" y="300" width="140" height="130" as="geometry" />
        </mxCell>
        <mxCell id="T9WD5PDA_iEELxJy5RSR-5" value="bool ReceivingBody" style="text;strokeColor=none;fillColor=none;align=left;verticalAlign=top;spacingLeft=4;spacingRight=4;overflow=hidden;rotatable=0;points=[[0,0.5],[1,0.5]];portConstraint=eastwest;" vertex="1" parent="T9WD5PDA_iEELxJy5RSR-4">
          <mxGeometry y="26" width="140" height="26" as="geometry" />
        </mxCell>
        <mxCell id="T9WD5PDA_iEELxJy5RSR-6" value="int RecvSz" style="text;strokeColor=none;fillColor=none;align=left;verticalAlign=top;spacingLeft=4;spacingRight=4;overflow=hidden;rotatable=0;points=[[0,0.5],[1,0.5]];portConstraint=eastwest;" vertex="1" parent="T9WD5PDA_iEELxJy5RSR-4">
          <mxGeometry y="52" width="140" height="26" as="geometry" />
        </mxCell>
        <mxCell id="T9WD5PDA_iEELxJy5RSR-7" value="int Socket" style="text;strokeColor=none;fillColor=none;align=left;verticalAlign=top;spacingLeft=4;spacingRight=4;overflow=hidden;rotatable=0;points=[[0,0.5],[1,0.5]];portConstraint=eastwest;" vertex="1" parent="T9WD5PDA_iEELxJy5RSR-4">
          <mxGeometry y="78" width="140" height="26" as="geometry" />
        </mxCell>
        <mxCell id="T9WD5PDA_iEELxJy5RSR-8" value="uint8 BufNum" style="text;strokeColor=none;fillColor=none;align=left;verticalAlign=top;spacingLeft=4;spacingRight=4;overflow=hidden;rotatable=0;points=[[0,0.5],[1,0.5]];portConstraint=eastwest;" vertex="1" parent="T9WD5PDA_iEELxJy5RSR-4">
          <mxGeometry y="104" width="140" height="26" as="geometry" />
        </mxCell>
        <mxCell id="T9WD5PDA_iEELxJy5RSR-17" value="PeerInterface" style="endArrow=open;html=1;endSize=12;startArrow=diamondThin;startSize=14;startFill=0;edgeStyle=orthogonalEdgeStyle;" edge="1" parent="GgCSxqtSinEt-At-rPkc-1" source="T9WD5PDA_iEELxJy5RSR-4" target="yGApRK1RUV87Ir9ato0B-0">
          <mxGeometry x="0.2308" relative="1" as="geometry">
            <mxPoint x="80" y="720" as="sourcePoint" />
            <mxPoint x="240" y="720" as="targetPoint" />
            <Array as="points">
              <mxPoint x="310" y="335" />
              <mxPoint x="310" y="371" />
            </Array>
            <mxPoint as="offset" />
          </mxGeometry>
        </mxCell>
        <mxCell id="T9WD5PDA_iEELxJy5RSR-18" value="0..1" style="resizable=0;html=1;align=left;verticalAlign=top;labelBackgroundColor=#ffffff;fontSize=10;" connectable="0" vertex="1" parent="T9WD5PDA_iEELxJy5RSR-17">
          <mxGeometry x="-1" relative="1" as="geometry">
            <mxPoint x="-30" y="5" as="offset" />
          </mxGeometry>
        </mxCell>
        <mxCell id="T9WD5PDA_iEELxJy5RSR-21" value="SBN_TCP_Peer_t" style="swimlane;fontStyle=0;childLayout=stackLayout;horizontal=1;startSize=26;fillColor=#FFFFFF;horizontalStack=0;resizeParent=1;resizeParentMax=0;resizeLast=0;collapsible=1;marginBottom=0;" vertex="1" parent="GgCSxqtSinEt-At-rPkc-1">
          <mxGeometry x="455" y="530" width="190" height="78" as="geometry" />
        </mxCell>
        <mxCell id="T9WD5PDA_iEELxJy5RSR-22" value="bool ConnectOut" style="text;strokeColor=none;fillColor=none;align=left;verticalAlign=top;spacingLeft=4;spacingRight=4;overflow=hidden;rotatable=0;points=[[0,0.5],[1,0.5]];portConstraint=eastwest;" vertex="1" parent="T9WD5PDA_iEELxJy5RSR-21">
          <mxGeometry y="26" width="190" height="26" as="geometry" />
        </mxCell>
        <mxCell id="T9WD5PDA_iEELxJy5RSR-23" value="OS_time_t LastConnectTry" style="text;strokeColor=none;fillColor=none;align=left;verticalAlign=top;spacingLeft=4;spacingRight=4;overflow=hidden;rotatable=0;points=[[0,0.5],[1,0.5]];portConstraint=eastwest;" vertex="1" parent="T9WD5PDA_iEELxJy5RSR-21">
          <mxGeometry y="52" width="190" height="26" as="geometry" />
        </mxCell>
        <mxCell id="T9WD5PDA_iEELxJy5RSR-26" value="ModulePvt" style="endArrow=open;html=1;endSize=12;startArrow=diamondThin;startSize=14;startFill=0;edgeStyle=orthogonalEdgeStyle;" edge="1" parent="GgCSxqtSinEt-At-rPkc-1" source="yGApRK1RUV87Ir9ato0B-0" target="T9WD5PDA_iEELxJy5RSR-21">
          <mxGeometry relative="1" as="geometry">
            <mxPoint x="180" y="550" as="sourcePoint" />
            <mxPoint x="540" y="490" as="targetPoint" />
            <Array as="points">
              <mxPoint x="520" y="440" />
            </Array>
          </mxGeometry>
        </mxCell>
        <mxCell id="T9WD5PDA_iEELxJy5RSR-27" value="1" style="resizable=0;html=1;align=left;verticalAlign=top;labelBackgroundColor=#ffffff;fontSize=10;" connectable="0" vertex="1" parent="T9WD5PDA_iEELxJy5RSR-26">
          <mxGeometry x="-1" relative="1" as="geometry" />
        </mxCell>
        <mxCell id="T9WD5PDA_iEELxJy5RSR-29" value="Conn" style="endArrow=open;html=1;endSize=12;startArrow=diamondThin;startSize=14;startFill=0;edgeStyle=orthogonalEdgeStyle;" edge="1" parent="GgCSxqtSinEt-At-rPkc-1" source="T9WD5PDA_iEELxJy5RSR-21" target="T9WD5PDA_iEELxJy5RSR-4">
          <mxGeometry relative="1" as="geometry">
            <mxPoint x="260" y="450" as="sourcePoint" />
            <mxPoint x="530" y="520" as="targetPoint" />
            <Array as="points" />
          </mxGeometry>
        </mxCell>
        <mxCell id="T9WD5PDA_iEELxJy5RSR-30" value="0..1" style="resizable=0;html=1;align=left;verticalAlign=top;labelBackgroundColor=#ffffff;fontSize=10;" connectable="0" vertex="1" parent="T9WD5PDA_iEELxJy5RSR-29">
          <mxGeometry x="-1" relative="1" as="geometry">
            <mxPoint x="10" y="-30" as="offset" />
          </mxGeometry>
        </mxCell>
        <mxCell id="T9WD5PDA_iEELxJy5RSR-31" value="SBN_TCP_Net_t" style="swimlane;fontStyle=0;childLayout=stackLayout;horizontal=1;startSize=26;fillColor=#FFFFFF;horizontalStack=0;resizeParent=1;resizeParentMax=0;resizeLast=0;collapsible=1;marginBottom=0;" vertex="1" parent="GgCSxqtSinEt-At-rPkc-1">
          <mxGeometry x="420" y="130" width="190" height="104" as="geometry" />
        </mxCell>
        <mxCell id="T9WD5PDA_iEELxJy5RSR-32" value="OS_SockAddr_t Addr" style="text;strokeColor=none;fillColor=none;align=left;verticalAlign=top;spacingLeft=4;spacingRight=4;overflow=hidden;rotatable=0;points=[[0,0.5],[1,0.5]];portConstraint=eastwest;" vertex="1" parent="T9WD5PDA_iEELxJy5RSR-31">
          <mxGeometry y="26" width="190" height="26" as="geometry" />
        </mxCell>
        <mxCell id="T9WD5PDA_iEELxJy5RSR-38" value="uint8 BufNum" style="text;strokeColor=none;fillColor=none;align=left;verticalAlign=top;spacingLeft=4;spacingRight=4;overflow=hidden;rotatable=0;points=[[0,0.5],[1,0.5]];portConstraint=eastwest;" vertex="1" parent="T9WD5PDA_iEELxJy5RSR-31">
          <mxGeometry y="52" width="190" height="26" as="geometry" />
        </mxCell>
        <mxCell id="T9WD5PDA_iEELxJy5RSR-33" value="int Socket" style="text;strokeColor=none;fillColor=none;align=left;verticalAlign=top;spacingLeft=4;spacingRight=4;overflow=hidden;rotatable=0;points=[[0,0.5],[1,0.5]];portConstraint=eastwest;" vertex="1" parent="T9WD5PDA_iEELxJy5RSR-31">
          <mxGeometry y="78" width="190" height="26" as="geometry" />
        </mxCell>
        <mxCell id="T9WD5PDA_iEELxJy5RSR-34" value="ModulePvt" style="endArrow=open;html=1;endSize=12;startArrow=diamondThin;startSize=14;startFill=0;edgeStyle=orthogonalEdgeStyle;" edge="1" parent="GgCSxqtSinEt-At-rPkc-1" source="T9WD5PDA_iEELxJy5RSR-0" target="T9WD5PDA_iEELxJy5RSR-31">
          <mxGeometry relative="1" as="geometry">
            <mxPoint x="410" y="-100" as="sourcePoint" />
            <mxPoint x="680" y="-10" as="targetPoint" />
            <Array as="points">
              <mxPoint x="500" y="70" />
            </Array>
          </mxGeometry>
        </mxCell>
        <mxCell id="T9WD5PDA_iEELxJy5RSR-35" value="1" style="resizable=0;html=1;align=left;verticalAlign=top;labelBackgroundColor=#ffffff;fontSize=10;" connectable="0" vertex="1" parent="T9WD5PDA_iEELxJy5RSR-34">
          <mxGeometry x="-1" relative="1" as="geometry" />
        </mxCell>
        <mxCell id="T9WD5PDA_iEELxJy5RSR-36" value="Conns" style="endArrow=open;html=1;endSize=12;startArrow=diamondThin;startSize=14;startFill=0;edgeStyle=orthogonalEdgeStyle;" edge="1" parent="GgCSxqtSinEt-At-rPkc-1" source="T9WD5PDA_iEELxJy5RSR-31" target="T9WD5PDA_iEELxJy5RSR-4">
          <mxGeometry relative="1" as="geometry">
            <mxPoint x="330" y="200" as="sourcePoint" />
            <mxPoint x="510" y="140" as="targetPoint" />
            <Array as="points">
              <mxPoint x="510" y="220" />
              <mxPoint x="510" y="220" />
            </Array>
          </mxGeometry>
        </mxCell>
        <mxCell id="T9WD5PDA_iEELxJy5RSR-37" value="ConnCnt" style="resizable=0;html=1;align=left;verticalAlign=top;labelBackgroundColor=#ffffff;fontSize=10;" connectable="0" vertex="1" parent="T9WD5PDA_iEELxJy5RSR-36">
          <mxGeometry x="-1" relative="1" as="geometry">
            <mxPoint x="20" as="offset" />
          </mxGeometry>
        </mxCell>
      </root>
    </mxGraphModel>
  </diagram>
</mxfile>
